# xmcd
# 
# Track frame offsets:
#     150
#     12853
#     28872
#     47479
#     67190
#     88040
#     106033
#     118555
#     135869
#     155689
#     168911
#     183822
# 
# Disc length: 2720
# 
# Revision: 17
# Processed by: cddbd v1.5.2PL0 Copyright (c) Steve Scherf et al.
# Submitted via: fre:ac v1.1beta1pre5
# 
DISCID=8e0a9e0c
DTITLE=Amy Winehouse - Lioness: Hidden Treasures
DYEAR=2011
DGENRE=R&B
TTITLE0=Our Day Will Come
TTITLE1=Between the Cheats
TTITLE2=Tears Dry
TTITLE3=Will You Still Love Me Tomorrow ?
TTITLE4=Like Smoke
TTITLE5=Valerie (´68 Version)
TTITLE6=The Girl from Ipanema
TTITLE7=Half Time
TTITLE8=Wake Up Alone
TTITLE9=Best Friends, Right ?
TTITLE10=Body and Soul
TTITLE11=A Song for You
EXTD=
EXTT0=
EXTT1=
EXTT2=
EXTT3=
EXTT4=
EXTT5=
EXTT6=
EXTT7=
EXTT8=
EXTT9=
EXTT10=
EXTT11=
PLAYORDER=
